<!--
ISC License

Copyright (c) for portions of Lucide are held by Cole Bemis 2013-2022 as part of Feather (MIT). All other copyright (c) for Lucide are held by Lucide Contributors 2022.

Permission to use, copy, modify, and/or distribute this software for any
purpose with or without fee is hereby granted, provided that the above
copyright notice and this permission notice appear in all copies.

THE SOFTWARE IS PROVIDED "AS IS" AND THE AUTHOR DISCLAIMS ALL WARRANTIES
WITH REGARD TO THIS SOFTWARE INCLUDING ALL IMPLIED WARRANTIES OF
MERCHANTABILITY AND FITNESS. IN NO EVENT SHALL THE AUTHOR BE LIABLE FOR
ANY SPECIAL, DIRECT, INDIRECT, OR CONSEQUENTIAL DAMAGES OR ANY DAMAGES
WHATSOEVER RESULTING FROM LOSS OF USE, DATA OR PROFITS, WHETHER IN AN
ACTION OF CONTRACT, NEGLIGENCE OR OTHER TORTIOUS ACTION, ARISING OUT OF
OR IN CONNECTION WITH THE USE OR PERFORMANCE OF THIS SOFTWARE.

-->
<svg xmlns="http://www.w3.org/2000/svg" width="24" height="24" viewBox="0 0 24 24" fill="none" stroke="currentColor" stroke-width="2" stroke-linecap="round" stroke-linejoin="round" class="lucide lucide-bug"><path d="m8 2 1.88 1.88"></path><path d="M14.12 3.88 16 2"></path><path d="M9 7.13v-1a3.003 3.003 0 1 1 6 0v1"></path><path d="M12 20c-3.3 0-6-2.7-6-6v-3a4 4 0 0 1 4-4h4a4 4 0 0 1 4 4v3c0 3.3-2.7 6-6 6"></path><path d="M12 20v-9"></path><path d="M6.53 9C4.6 8.8 3 7.1 3 5"></path><path d="M6 13H2"></path><path d="M3 21c0-2.1 1.7-3.9 3.8-4"></path><path d="M20.97 5c0 2.1-1.6 3.8-3.5 4"></path><path d="M22 13h-4"></path><path d="M17.2 17c2.1.1 3.8 1.9 3.8 4"></path></svg>